<svg version="1.1" id="Layer_1" xmlns="http://www.w3.org/2000/svg" xmlns:xlink="http://www.w3.org/1999/xlink" x="0px" y="0px"
	 width="100%" viewBox="0 0 200 200" enable-background="new 0 0 200 200" xml:space="preserve">
<path fill="#FFFFFF" opacity="1.000000" stroke="none" 
	d="
M97.000000,201.000000 
	C64.666672,201.000000 32.833336,201.000000 1.000004,201.000000 
	C1.000003,134.333344 1.000003,67.666679 1.000001,1.000013 
	C67.666656,1.000009 134.333313,1.000009 200.999969,1.000004 
	C200.999985,67.666649 200.999985,134.333298 201.000000,200.999969 
	C166.500000,201.000000 132.000000,201.000000 97.000000,201.000000 
M67.824829,125.507484 
	C69.862183,123.289345 71.899536,121.071205 74.649788,118.823868 
	C78.077011,115.950447 81.631836,113.210335 84.855850,110.124603 
	C85.858688,109.164780 86.430786,107.216690 86.274857,105.824677 
	C86.203156,105.184624 83.913338,104.404327 82.606453,104.359848 
	C77.446518,104.184242 72.272240,104.146339 67.115593,104.357765 
	C65.829773,104.410484 64.589996,105.586388 63.329056,106.246048 
	C64.668602,106.797951 65.990356,107.767860 67.350929,107.825768 
	C72.006081,108.023911 76.674881,107.901741 81.546883,107.901741 
	C78.694550,111.453377 76.357788,114.363014 73.344872,117.277298 
	C71.545868,118.702423 69.496414,119.908798 68.011879,121.608566 
	C66.195877,123.687874 64.853386,126.180725 63.306141,128.494751 
	C66.145409,128.803589 68.984673,129.112427 72.739815,129.747665 
	C77.340118,129.747665 81.940414,129.747665 87.267990,129.747665 
	C84.551392,125.900192 77.477043,125.243256 71.264755,126.971169 
	C70.210968,126.950539 69.157188,126.929909 67.770523,126.468330 
	C67.639496,126.338921 67.508469,126.209511 67.824829,125.507484 
M95.784943,120.763100 
	C100.182449,120.715355 104.579948,120.667610 109.548180,121.262787 
	C109.893341,124.117218 110.238510,126.971649 110.677231,130.599792 
	C111.984085,129.424957 112.637276,129.113831 112.642288,128.792572 
	C112.747971,122.023499 112.960503,115.245697 112.675972,108.489655 
	C112.618904,107.134834 110.668884,104.798340 109.500473,104.739967 
	C105.030708,104.516670 100.523743,105.038116 95.222145,104.989342 
	C91.314751,104.450111 89.738991,106.252678 89.849648,110.075394 
	C89.969521,114.216568 89.826797,118.364746 89.895531,122.508270 
	C89.930656,124.625999 90.177780,126.740219 90.329079,128.856033 
	C90.829323,128.835602 91.329567,128.815170 91.829811,128.794739 
	C91.929184,127.111290 91.709251,125.320480 92.227867,123.777992 
	C92.650955,122.519638 93.956810,121.558090 95.784943,120.763100 
M119.184662,72.325371 
	C117.857811,73.038857 115.414436,73.701508 115.379272,74.473793 
	C115.075058,81.155304 115.204109,87.856537 115.204109,94.848434 
	C117.521545,94.990448 119.287819,95.098694 121.604836,95.688461 
	C123.722816,95.522362 125.840790,95.356255 128.866882,95.139023 
	C129.860016,95.134193 130.853165,95.128761 131.846298,95.124641 
	C138.024338,95.099045 139.092667,94.060135 138.769333,87.923744 
	C138.649246,85.644318 137.913559,83.394173 137.827072,81.116684 
	C137.506760,72.680534 137.564529,72.678345 128.361801,72.384552 
	C125.570274,72.445374 122.778740,72.506195 119.184662,72.325371 
M96.098785,72.767357 
	C89.209534,72.787575 88.998711,72.988708 88.974442,79.685600 
	C88.964188,82.514153 88.964722,85.342796 88.974495,88.171349 
	C88.998299,95.056763 89.749290,95.663528 97.576553,95.326309 
	C100.855804,95.456429 104.255997,96.157249 107.367943,95.497833 
	C109.169968,95.115974 111.610794,92.688995 111.841789,90.929962 
	C112.460770,86.216339 112.358246,81.333717 111.861633,76.589485 
	C111.695557,75.002892 109.595345,72.537674 108.164322,72.375961 
	C104.496864,71.961502 100.708755,72.614716 96.098785,72.767357 
M71.791672,86.003677 
	C76.297501,85.714104 76.789711,90.242401 79.345016,92.293938 
	C80.877213,93.524071 82.420799,94.740036 83.959259,95.962372 
	C84.324669,95.520172 84.690079,95.077972 85.055489,94.635780 
	C83.335587,92.353630 81.615692,90.071480 79.685936,87.510864 
	C81.197884,87.152924 82.233948,87.103973 83.077042,86.675407 
	C87.719223,84.315681 85.881226,79.943108 85.709518,76.423416 
	C85.637520,74.947365 83.299164,72.573944 81.767097,72.380188 
	C78.230904,71.932953 74.557724,72.568939 70.036781,72.675125 
	C67.781693,72.675125 65.526611,72.675125 63.580788,72.675125 
	C63.580788,80.692711 63.580788,88.019287 63.580788,95.345863 
	C64.115112,95.391296 64.649445,95.436729 65.183769,95.482155 
	C65.515137,92.738258 65.846504,89.994354 66.148224,87.495972 
	C67.982117,86.934807 69.503136,86.469383 71.791672,86.003677 
M132.759613,120.023628 
	C134.607880,119.610031 137.918579,119.473648 138.058365,118.736191 
	C138.770065,114.981621 139.491348,110.867905 138.609436,107.272316 
	C137.702194,103.573418 133.840424,104.870186 130.405563,104.675285 
	C125.708878,104.675285 121.012199,104.675285 115.849014,104.675285 
	C116.594963,113.343155 115.063263,121.597961 116.732346,129.685822 
	C117.286896,129.714844 117.841454,129.743866 118.396011,129.772888 
	C118.764603,126.870705 119.133194,123.968521 119.460953,121.387817 
	C123.919823,120.792671 127.934708,120.256783 132.759613,120.023628 
z"/>
<path fill="#9DBBEF" opacity="1.000000" stroke="none" 
	d="
M131.949585,119.720886 
	C127.934708,120.256783 123.919823,120.792671 119.460953,121.387817 
	C119.133194,123.968521 118.764603,126.870705 118.396011,129.772888 
	C117.841454,129.743866 117.286896,129.714844 116.732346,129.685822 
	C115.063263,121.597961 116.594963,113.343155 115.849014,104.675285 
	C121.012199,104.675285 125.708878,104.675285 130.707367,105.257523 
	C131.016785,106.404877 131.024399,106.969994 130.580536,107.656006 
	C128.153717,107.811249 126.168251,107.988052 124.205299,107.848434 
	C120.791351,107.605614 118.794464,108.084854 118.803192,112.481140 
	C118.811783,116.813591 120.687286,117.359619 124.162140,117.172058 
	C126.771912,117.031189 129.406540,117.351013 132.030457,117.750275 
	C132.003723,118.596840 131.976654,119.158859 131.949585,119.720886 
z"/>
<path fill="#F8FBFE" opacity="1.000000" stroke="none" 
	d="
M127.958771,95.190155 
	C125.840790,95.356255 123.722816,95.522362 121.240784,95.078156 
	C118.084930,91.509804 116.231476,88.466141 120.451561,84.950684 
	C123.603477,84.962624 126.308250,84.932899 129.441360,84.937927 
	C132.292236,85.437363 135.755920,83.578766 136.058823,88.414993 
	C136.350281,93.068794 133.588562,92.914833 130.400696,93.027046 
	C129.562378,93.056549 128.771454,94.432510 127.958771,95.190155 
z"/>
<path fill="#D77CE8" opacity="1.000000" stroke="none" 
	d="
M74.021042,117.272659 
	C76.357788,114.363014 78.694550,111.453377 81.546883,107.901741 
	C76.674881,107.901741 72.006081,108.023911 67.350929,107.825768 
	C65.990356,107.767860 64.668602,106.797951 63.329056,106.246048 
	C64.589996,105.586388 65.829773,104.410484 67.115593,104.357765 
	C72.272240,104.146339 77.446518,104.184242 82.606453,104.359848 
	C83.913338,104.404327 86.203156,105.184624 86.274857,105.824677 
	C86.430786,107.216690 85.858688,109.164780 84.855850,110.124603 
	C81.631836,113.210335 78.077011,115.950447 74.288300,118.574310 
	C73.958221,117.974060 73.989632,117.623360 74.021042,117.272659 
z"/>
<path fill="#D578E7" opacity="1.000000" stroke="none" 
	d="
M70.940109,72.765518 
	C74.557724,72.568939 78.230904,71.932953 81.767097,72.380188 
	C83.299164,72.573944 85.637520,74.947365 85.709518,76.423416 
	C85.881226,79.943108 87.719223,84.315681 83.077042,86.675407 
	C82.233948,87.103973 81.197884,87.152924 79.685936,87.510864 
	C81.615692,90.071480 83.335587,92.353630 85.055489,94.635780 
	C84.690079,95.077972 84.324669,95.520172 83.959259,95.962372 
	C82.420799,94.740036 80.877213,93.524071 79.345016,92.293938 
	C76.789711,90.242401 76.297501,85.714104 71.163246,85.871414 
	C70.341507,85.233261 70.148186,84.727364 70.416939,84.137711 
	C74.765633,84.053963 78.652252,84.053963 82.402992,84.053963 
	C83.843307,75.231979 82.812607,73.956772 74.850388,73.876083 
	C73.866112,73.866104 72.880936,73.944923 71.659042,73.852097 
	C71.261314,73.402908 71.100716,73.084213 70.940109,72.765518 
z"/>
<path fill="#ADAAED" opacity="1.000000" stroke="none" 
	d="
M96.968887,72.841034 
	C100.708755,72.614716 104.496864,71.961502 108.164322,72.375961 
	C109.595345,72.537674 111.695557,75.002892 111.861633,76.589485 
	C112.358246,81.333717 112.460770,86.216339 111.841789,90.929962 
	C111.610794,92.688995 109.169968,95.115974 107.367943,95.497833 
	C104.255997,96.157249 100.855804,95.456429 97.275040,94.783600 
	C96.957916,93.916336 96.968903,93.592674 97.287338,92.961105 
	C98.873100,92.509438 100.176491,92.259270 101.483101,92.241173 
	C109.879890,92.124886 109.077385,93.295403 109.102730,84.398659 
	C109.133270,73.679619 109.110626,73.679558 97.658783,73.853790 
	C97.280258,73.434471 97.124573,73.137749 96.968887,72.841034 
z"/>
<path fill="#B1AEEE" opacity="1.000000" stroke="none" 
	d="
M96.030663,105.281525 
	C100.523743,105.038116 105.030708,104.516670 109.500473,104.739967 
	C110.668884,104.798340 112.618904,107.134834 112.675972,108.489655 
	C112.960503,115.245697 112.747971,122.023499 112.642288,128.792572 
	C112.637276,129.113831 111.984085,129.424957 110.677231,130.599792 
	C110.238510,126.971649 109.893341,124.117218 109.270844,120.604797 
	C108.986725,119.261269 108.979935,118.575729 109.203972,117.556122 
	C109.590187,114.246429 109.745560,111.270805 109.906914,108.180588 
	C104.698952,107.940582 100.321198,107.738846 95.941635,107.252716 
	C95.970108,106.406059 96.000389,105.843788 96.030663,105.281525 
z"/>
<path fill="#72CDEF" opacity="1.000000" stroke="none" 
	d="
M128.412827,95.164589 
	C128.771454,94.432510 129.562378,93.056549 130.400696,93.027046 
	C133.588562,92.914833 136.350281,93.068794 136.058823,88.414993 
	C135.755920,83.578766 132.292236,85.437363 129.435150,84.612503 
	C129.007935,83.595932 129.015289,82.939545 129.448090,82.212509 
	C133.783051,82.597168 136.228912,81.108643 134.644073,77.073990 
	C134.145676,75.805153 130.966675,75.589256 129.010757,74.541512 
	C129.016983,73.724030 129.027008,73.256470 129.037033,72.788902 
	C137.564529,72.678345 137.506760,72.680534 137.827072,81.116684 
	C137.913559,83.394173 138.649246,85.644318 138.769333,87.923744 
	C139.092667,94.060135 138.024338,95.099045 131.846298,95.124641 
	C130.853165,95.128761 129.860016,95.134193 128.412827,95.164589 
z"/>
<path fill="#E64CE1" opacity="1.000000" stroke="none" 
	d="
M69.954865,84.221466 
	C70.148186,84.727364 70.341507,85.233261 70.779488,85.871559 
	C69.503136,86.469383 67.982117,86.934807 66.148224,87.495972 
	C65.846504,89.994354 65.515137,92.738258 65.183769,95.482155 
	C64.649445,95.436729 64.115112,95.391296 63.580788,95.345863 
	C63.580788,88.019287 63.580788,80.692711 63.580788,72.675125 
	C65.526611,72.675125 67.781693,72.675125 70.488449,72.720322 
	C71.100716,73.084213 71.261314,73.402908 71.490120,74.223099 
	C69.800247,74.948334 68.042168,75.172073 66.367020,75.385262 
	C64.951508,83.281296 65.065529,83.550095 69.954865,84.221466 
z"/>
<path fill="#8EADEC" opacity="1.000000" stroke="none" 
	d="
M120.004410,84.909019 
	C116.231476,88.466141 118.084930,91.509804 120.965408,94.837387 
	C119.287819,95.098694 117.521545,94.990448 115.204109,94.848434 
	C115.204109,87.856537 115.075058,81.155304 115.379272,74.473793 
	C115.414436,73.701508 117.857811,73.038857 119.592957,72.730972 
	C120.002609,73.722275 120.003975,74.307976 119.660400,75.059357 
	C117.738106,77.750420 116.899345,80.204071 120.001053,82.605560 
	C120.002785,83.593666 120.003601,84.251343 120.004410,84.909019 
z"/>
<path fill="#B877E6" opacity="1.000000" stroke="none" 
	d="
M96.533836,72.804199 
	C97.124573,73.137749 97.280258,73.434471 97.471436,74.209305 
	C95.759384,74.926575 94.011826,75.165718 92.286148,75.401871 
	C92.286148,81.337715 92.286148,86.901253 92.286148,92.505997 
	C94.092834,92.798386 95.549644,93.034142 97.006462,93.269905 
	C96.968903,93.592674 96.957916,93.916336 97.005402,94.478546 
	C89.749290,95.663528 88.998299,95.056763 88.974495,88.171349 
	C88.964722,85.342796 88.964188,82.514153 88.974442,79.685600 
	C88.998711,72.988708 89.209534,72.787575 96.533836,72.804199 
z"/>
<path fill="#72CDEF" opacity="1.000000" stroke="none" 
	d="
M131.032013,107.535118 
	C131.024399,106.969994 131.016785,106.404877 130.980591,105.563873 
	C133.840424,104.870186 137.702194,103.573418 138.609436,107.272316 
	C139.491348,110.867905 138.770065,114.981621 138.058365,118.736191 
	C137.918579,119.473648 134.607880,119.610031 132.354599,119.872253 
	C131.976654,119.158859 132.003723,118.596840 132.463379,117.661278 
	C138.026535,117.204224 135.885818,113.291649 136.146515,110.834312 
	C136.586563,106.686234 133.014191,108.231903 131.032013,107.535118 
z"/>
<path fill="#B771E5" opacity="1.000000" stroke="none" 
	d="
M95.626404,105.135437 
	C96.000389,105.843788 95.970108,106.406059 95.521477,107.328003 
	C94.103653,109.003365 92.345123,110.278549 92.272308,111.643654 
	C92.144615,114.037712 90.523811,117.588425 94.984146,118.456558 
	C94.970512,118.643227 94.996437,119.016647 94.980759,119.260132 
	C94.938965,119.824562 94.907684,120.145004 94.871246,120.464935 
	C93.956810,121.558090 92.650955,122.519638 92.227867,123.777992 
	C91.709251,125.320480 91.929184,127.111290 91.829811,128.794739 
	C91.329567,128.815170 90.829323,128.835602 90.329079,128.856033 
	C90.177780,126.740219 89.930656,124.625999 89.895531,122.508270 
	C89.826797,118.364746 89.969521,114.216568 89.849648,110.075394 
	C89.738991,106.252678 91.314751,104.450111 95.626404,105.135437 
z"/>
<path fill="#DF43E0" opacity="1.000000" stroke="none" 
	d="
M73.682953,117.274979 
	C73.989632,117.623360 73.958221,117.974060 73.931847,118.588913 
	C71.899536,121.071205 69.862183,123.289345 67.534981,125.963364 
	C67.531219,126.582581 67.817314,126.745934 68.103401,126.909279 
	C69.157188,126.929909 70.210968,126.950539 71.602249,127.399429 
	C71.901138,128.358887 71.862541,128.890076 71.823944,129.421265 
	C68.984673,129.112427 66.145409,128.803589 63.306141,128.494751 
	C64.853386,126.180725 66.195877,123.687874 68.011879,121.608566 
	C69.496414,119.908798 71.545868,118.702423 73.682953,117.274979 
z"/>
<path fill="#D77CE8" opacity="1.000000" stroke="none" 
	d="
M72.281876,129.584473 
	C71.862541,128.890076 71.901138,128.358887 71.963928,127.560814 
	C77.477043,125.243256 84.551392,125.900192 87.267990,129.747665 
	C81.940414,129.747665 77.340118,129.747665 72.281876,129.584473 
z"/>
<path fill="#B1A1EC" opacity="1.000000" stroke="none" 
	d="
M95.328094,120.614014 
	C94.907684,120.145004 94.938965,119.824562 95.361656,119.262207 
	C97.144798,118.734879 98.531372,118.448967 100.361290,118.053635 
	C103.527473,117.926208 106.250305,117.908203 108.973145,117.890198 
	C108.979935,118.575729 108.986725,119.261269 108.985489,120.283325 
	C104.579948,120.667610 100.182449,120.715355 95.328094,120.614014 
z"/>
<path fill="#85BFEE" opacity="1.000000" stroke="none" 
	d="
M120.005333,74.893677 
	C120.003975,74.307976 120.002609,73.722275 119.994232,72.851799 
	C122.778740,72.506195 125.570274,72.445374 128.699417,72.586731 
	C129.027008,73.256470 129.016983,73.724030 128.561890,74.594307 
	C125.412994,74.962570 122.709160,74.928123 120.005333,74.893677 
z"/>
<path fill="#D77CE8" opacity="1.000000" stroke="none" 
	d="
M67.936966,126.688805 
	C67.817314,126.745934 67.531219,126.582581 67.311279,126.249664 
	C67.508469,126.209511 67.639496,126.338921 67.936966,126.688805 
z"/>
<path fill="#F8FBFE" opacity="1.000000" stroke="none" 
	d="
M130.580536,107.656006 
	C133.014191,108.231903 136.586563,106.686234 136.146515,110.834312 
	C135.885818,113.291649 138.026535,117.204224 132.463028,117.376740 
	C129.406540,117.351013 126.771912,117.031189 124.162140,117.172058 
	C120.687286,117.359619 118.811783,116.813591 118.803192,112.481140 
	C118.794464,108.084854 120.791351,107.605614 124.205299,107.848434 
	C126.168251,107.988052 128.153717,107.811249 130.580536,107.656006 
z"/>
<path fill="#85BFEE" opacity="1.000000" stroke="none" 
	d="
M120.451561,84.950684 
	C120.003601,84.251343 120.002785,83.593666 120.446785,82.528984 
	C123.601952,82.175705 126.312294,82.229424 129.022644,82.283150 
	C129.015289,82.939545 129.007935,83.595932 129.006805,84.577744 
	C126.308250,84.932899 123.603477,84.962624 120.451561,84.950684 
z"/>
<path fill="#FFFFFF" opacity="1.000000" stroke="none" 
	d="
M70.416939,84.137711 
	C65.065529,83.550095 64.951508,83.281296 66.367020,75.385262 
	C68.042168,75.172073 69.800247,74.948334 71.727249,74.353592 
	C72.880936,73.944923 73.866112,73.866104 74.850388,73.876083 
	C82.812607,73.956772 83.843307,75.231979 82.402992,84.053963 
	C78.652252,84.053963 74.765633,84.053963 70.416939,84.137711 
z"/>
<path fill="#FDFCFE" opacity="1.000000" stroke="none" 
	d="
M97.287338,92.961105 
	C95.549644,93.034142 94.092834,92.798386 92.286148,92.505997 
	C92.286148,86.901253 92.286148,81.337715 92.286148,75.401871 
	C94.011826,75.165718 95.759384,74.926575 97.694283,74.331909 
	C109.110626,73.679558 109.133270,73.679619 109.102730,84.398659 
	C109.077385,93.295403 109.879890,92.124886 101.483101,92.241173 
	C100.176491,92.259270 98.873100,92.509438 97.287338,92.961105 
z"/>
<path fill="#FBF9FE" opacity="1.000000" stroke="none" 
	d="
M109.203979,117.556122 
	C106.250305,117.908203 103.527473,117.926208 100.142876,117.780701 
	C97.986671,117.834755 96.492218,118.052322 94.997772,118.269897 
	C90.523811,117.588425 92.144615,114.037712 92.272308,111.643654 
	C92.345123,110.278549 94.103653,109.003365 95.523285,107.612396 
	C100.321198,107.738846 104.698952,107.940582 109.906914,108.180588 
	C109.745560,111.270805 109.590187,114.246429 109.203979,117.556122 
z"/>
<path fill="#FDFCFE" opacity="1.000000" stroke="none" 
	d="
M129.448090,82.212509 
	C126.312294,82.229424 123.601952,82.175705 120.445869,82.198555 
	C116.899345,80.204071 117.738106,77.750420 119.660400,75.059357 
	C122.709160,74.928123 125.412994,74.962570 128.565704,74.944221 
	C130.966675,75.589256 134.145676,75.805153 134.644073,77.073990 
	C136.228912,81.108643 133.783051,82.597168 129.448090,82.212509 
z"/>
<path fill="#B1AEEE" opacity="1.000000" stroke="none" 
	d="
M94.984146,118.456558 
	C96.492218,118.052322 97.986671,117.834755 99.699532,117.890121 
	C98.531372,118.448967 97.144798,118.734879 95.377335,119.018723 
	C94.996437,119.016647 94.970512,118.643227 94.984146,118.456558 
z"/>
</svg>